<svg width="1929" height="1537" xmlns="http://www.w3.org/2000/svg" xmlns:xlink="http://www.w3.org/1999/xlink" xml:space="preserve" overflow="hidden"><g transform="translate(-143 -124)"><path d="M150 188.538C150 156.761 175.76 131 207.538 131L2007.46 131C2039.24 131 2065 156.761 2065 188.538L2065 1596.46C2065 1628.24 2039.24 1654 2007.46 1654L207.538 1654C175.76 1654 150 1628.24 150 1596.46Z" stroke="#4169E1" stroke-width="13.75" stroke-miterlimit="8" fill="#FFFFFF" fill-rule="evenodd"/><text font-family="Noto Sans KR,Noto Sans KR_MSFontService,sans-serif" font-weight="400" font-size="69" transform="matrix(1 0 0 1 1010 304)">추상화</text><text font-family="Noto Sans KR,Noto Sans KR_MSFontService,sans-serif" font-weight="400" font-size="69" transform="matrix(1 0 0 1 1041.51 387)">능력</text><text font-family="Noto Sans KR,Noto Sans KR_MSFontService,sans-serif" font-weight="400" font-size="69" transform="matrix(1 0 0 1 448.775 572)">논리적</text><text font-family="Noto Sans KR,Noto Sans KR_MSFontService,sans-serif" font-weight="400" font-size="69" transform="matrix(1 0 0 1 448.775 655)">사고력</text><text font-family="Noto Sans KR,Noto Sans KR_MSFontService,sans-serif" font-weight="400" font-size="69" transform="matrix(1 0 0 1 337.463 1041)">문제해결</text><text font-family="Noto Sans KR,Noto Sans KR_MSFontService,sans-serif" font-weight="400" font-size="69" transform="matrix(1 0 0 1 400.484 1124)">능력</text><text font-family="Noto Sans KR,Noto Sans KR_MSFontService,sans-serif" font-weight="400" font-size="69" transform="matrix(1 0 0 1 777.045 1448)">비판적</text><text font-family="Noto Sans KR,Noto Sans KR_MSFontService,sans-serif" font-weight="400" font-size="69" transform="matrix(1 0 0 1 777.045 1531)">사고력</text><text font-family="Noto Sans KR,Noto Sans KR_MSFontService,sans-serif" font-weight="400" font-size="69" transform="matrix(1 0 0 1 1254.85 1448)">창의적</text><text font-family="Noto Sans KR,Noto Sans KR_MSFontService,sans-serif" font-weight="400" font-size="69" transform="matrix(1 0 0 1 1254.85 1531)">사고력</text><text font-family="Noto Sans KR,Noto Sans KR_MSFontService,sans-serif" font-weight="400" font-size="69" transform="matrix(1 0 0 1 1624.9 1041)">의사결정</text><text font-family="Noto Sans KR,Noto Sans KR_MSFontService,sans-serif" font-weight="400" font-size="69" transform="matrix(1 0 0 1 1687.92 1124)">능력</text><text font-family="Noto Sans KR,Noto Sans KR_MSFontService,sans-serif" font-weight="400" font-size="69" transform="matrix(1 0 0 1 1583.37 572)">통합적</text><text font-family="Noto Sans KR,Noto Sans KR_MSFontService,sans-serif" font-weight="400" font-size="69" transform="matrix(1 0 0 1 1583.37 655)">사고력</text><path d="M660.998 999.294 749.336 601.87 1107 425 1464.66 601.87 1553 999.294 1305.49 1318 908.513 1318Z" fill="#EBF3FF" fill-rule="evenodd"/><path d="M750.498 973.749 820.911 657.323 1106 516.5 1391.09 657.323 1461.5 973.749 1264.21 1227.5 947.788 1227.5Z" stroke="#FFFFFF" stroke-width="6.875" stroke-miterlimit="8" fill="none" fill-rule="evenodd"/><path d="M843.499 953.845 895.392 721.087 1105.5 617.5 1315.61 721.087 1367.5 953.845 1222.1 1140.5 988.9 1140.5Z" stroke="#FFFFFF" stroke-width="6.875" stroke-miterlimit="8" fill="none" fill-rule="evenodd"/><path d="M935.499 921.086 969.567 768.436 1107.5 700.5 1245.43 768.436 1279.5 921.086 1184.05 1043.5 1030.95 1043.5Z" stroke="#FFFFFF" stroke-width="6.875" stroke-miterlimit="8" fill="none" fill-rule="evenodd"/><path d="M1018.5 897.044 1035.83 819.161 1106 784.5 1176.17 819.161 1193.5 897.044 1144.94 959.501 1067.06 959.501Z" stroke="#FFFFFF" stroke-width="6.875" stroke-miterlimit="8" fill="none" fill-rule="evenodd"/><path d="M1189.28 1040.2 1266.98 1214.79 1254.42 1220.38 1176.72 1045.8ZM1276.75 1202.92 1274.67 1248.99 1239.06 1219.69Z" fill="#4169E1"/><path d="M6.28108-2.7953 83.9789 171.793 71.4167 177.383-6.28108 2.7953ZM93.7457 159.921 91.6742 205.993 56.0592 176.693Z" fill="#4169E1" transform="matrix(-1 0 0 1 1030.67 1043)"/><path d="M1280.89 914.39 1453.84 963.889 1450.05 977.108 1277.11 927.609ZM1451.01 948.778 1484.99 979.957 1439.66 988.436Z" fill="#4169E1"/><path d="M4.1356-5.49204 141.867 98.2224 133.596 109.206-4.1356 5.49204ZM144.647 83.1027 165.192 124.392 119.833 116.055Z" fill="#4169E1" transform="matrix(1 0 0 -1 1245 768.392)"/><path d="M1100.13 699.991 1100.12 528.375 1113.88 528.375 1113.88 699.991ZM1086.38 535.25 1107 494 1127.62 535.25Z" fill="#4169E1"/><path d="M965.057 773.884 827.325 670.17 835.596 659.186 973.328 762.9ZM824.546 685.289 804 644 849.359 652.337Z" fill="#4169E1"/><path d="M1.89175-6.60961 174.836 42.8892 171.053 56.1084-1.89175 6.60961ZM172.01 27.7782 205.992 58.9575 160.659 67.4359Z" fill="#4169E1" transform="matrix(-1 0 0 1 934.992 921)"/><path d="M1110.61 721 1000.34 802.595 979 930.31 1078.6 951.595 1167.53 1019 1181.76 909.024 1228 799.048 1110.61 721Z" fill="#4169E1" fill-rule="evenodd" fill-opacity="0.8"/></g></svg>